<?xml version="1.0" encoding="UTF-8"?>
<!DOCTYPE svg PUBLIC "-//W3C//DTD SVG 1.1//EN" "http://www.w3.org/Graphics/SVG/1.1/DTD/svg11.dtd">
<svg xmlns="http://www.w3.org/2000/svg" version="1.1" width="512px" height="512px" style="shape-rendering:geometricPrecision; text-rendering:geometricPrecision; image-rendering:optimizeQuality; fill-rule:evenodd; clip-rule:evenodd" xmlns:xlink="http://www.w3.org/1999/xlink">
<g><path style="opacity:0.96" fill="#0dc7e0" d="M 131.5,164.5 C 131.672,163.508 131.338,162.842 130.5,162.5C 130.672,161.508 130.338,160.842 129.5,160.5C 127.038,153.356 126.205,146.023 127,138.5C 127.831,133.319 130.664,129.819 135.5,128C 138.753,126.964 142.086,126.297 145.5,126C 148.374,122.486 152.041,121.153 156.5,122C 157.2,128.802 158.034,135.635 159,142.5C 159.806,145.446 161.139,148.112 163,150.5C 164.046,149.228 164.546,147.728 164.5,146C 161.826,133.435 159.326,120.935 157,108.5C 161.339,105.193 165.839,104.859 170.5,107.5C 171.294,113.783 171.794,120.116 172,126.5C 173.081,116.842 175.414,107.509 179,98.5C 182.254,93.7773 186.754,92.2773 192.5,94C 194.478,94.4807 195.811,95.6473 196.5,97.5C 195.054,101.899 194.054,106.399 193.5,111C 193.454,112.728 193.954,114.228 195,115.5C 197.085,106.641 198.918,97.6411 200.5,88.5C 200.167,87.8333 199.833,87.1667 199.5,86.5C 196.134,88.038 192.801,89.2047 189.5,90C 188.445,86.7424 189.445,84.0758 192.5,82C 196.271,79.7813 200.271,78.1146 204.5,77C 205.977,73.0449 207.977,69.3783 210.5,66C 215.11,64.1735 219.777,64.0068 224.5,65.5C 224.451,68.0991 223.451,70.2658 221.5,72C 224.903,72.1004 228.07,72.9337 231,74.5C 231.967,63.77 237.467,60.27 247.5,64C 249.847,65.191 250.68,67.0243 250,69.5C 246.749,73.4217 242.916,76.5883 238.5,79C 231.291,78.8054 224.125,79.6387 217,81.5C 211.207,94.6273 208.707,108.294 209.5,122.5C 212.256,120.909 214.089,118.576 215,115.5C 215.634,104.631 218.301,94.2974 223,84.5C 226.685,81.023 230.851,80.523 235.5,83C 236.574,83.7387 237.241,84.7387 237.5,86C 233.999,91.8371 231.166,98.0038 229,104.5C 227.637,108.761 227.304,113.095 228,117.5C 230.292,116.21 232.292,114.543 234,112.5C 238.34,101.157 242.673,89.8234 247,78.5C 247.739,77.4258 248.739,76.7591 250,76.5C 254.944,77.2017 258.444,79.7017 260.5,84C 251.746,97.5183 252.746,98.5183 263.5,87C 267.172,84.162 271.172,81.8287 275.5,80C 282.968,78.7889 287.968,81.7889 290.5,89C 286,94.1667 281.5,99.3333 277,104.5C 274.4,108.097 272.234,111.93 270.5,116C 272.289,116.52 273.956,116.187 275.5,115C 280.649,110.685 285.649,106.185 290.5,101.5C 291.652,104.106 291.818,106.773 291,109.5C 285.282,116.886 278.615,123.22 271,128.5C 260.516,124.071 257.183,116.404 261,105.5C 263.041,101.916 265.208,98.4162 267.5,95C 261.848,98.3081 257.014,102.808 253,108.5C 248.663,114.005 245.83,120.172 244.5,127C 241.77,127.728 239.103,127.562 236.5,126.5C 230.468,130.892 224.968,130.225 220,124.5C 218.803,127.089 217.803,129.756 217,132.5C 213.042,134.918 208.875,135.085 204.5,133C 201.794,130.629 199.461,127.963 197.5,125C 187.683,124.516 182.516,119.349 182,109.5C 177.794,121.598 176.794,133.931 179,146.5C 183.277,153.072 181.443,156.072 173.5,155.5C 174.035,158.238 173.035,160.072 170.5,161C 166.33,161.325 162.33,161.491 158.5,161.5C 160.352,165.67 160.852,170.004 160,174.5C 153.961,176.99 147.794,177.157 141.5,175C 137.36,172.179 134.027,168.679 131.5,164.5 Z M 243.5,99.5 C 244.249,100.531 244.915,101.698 245.5,103C 242.92,110.399 239.753,117.566 236,124.5C 234.178,120.213 234.178,115.879 236,111.5C 238.772,107.612 241.272,103.612 243.5,99.5 Z M 201.5,103.5 C 202.599,109.901 201.765,116.235 199,122.5C 198.131,120.419 197.631,118.253 197.5,116C 198.533,111.733 199.867,107.567 201.5,103.5 Z M 220.5,103.5 C 222.89,103.685 223.89,105.018 223.5,107.5C 222.477,112.261 221.143,116.928 219.5,121.5C 217.6,120.203 216.6,118.37 216.5,116C 218.267,111.968 219.6,107.801 220.5,103.5 Z M 165.5,128.5 C 166.496,128.414 167.329,128.748 168,129.5C 171.131,137.611 172.298,145.944 171.5,154.5C 169.282,153.076 167.782,151.076 167,148.5C 166.474,141.829 165.974,135.163 165.5,128.5 Z M 140.5,132.5 C 142.167,132.5 143.833,132.5 145.5,132.5C 146.669,142.014 148.002,151.514 149.5,161C 149.167,162.5 148.833,164 148.5,165.5C 143.886,161.192 141.052,155.858 140,149.5C 137.892,143.706 138.059,138.039 140.5,132.5 Z"/></g>
<g><path style="opacity:0.972" fill="#0dc7e0" d="M 329.5,79.5 C 341.123,78.6585 352.123,80.8252 362.5,86C 371.829,92.9774 373.996,101.811 369,112.5C 366.583,113.998 363.917,114.665 361,114.5C 355.444,114.046 349.944,113.213 344.5,112C 341.461,111.647 338.795,110.48 336.5,108.5C 344.593,106.644 352.593,104.477 360.5,102C 360.957,101.586 361.291,101.086 361.5,100.5C 355.132,96.4895 348.132,94.4895 340.5,94.5C 331.854,94.4937 323.854,96.6604 316.5,101C 314.339,102.764 314.172,104.597 316,106.5C 321.034,111.199 325.7,116.199 330,121.5C 330.922,125.701 330.422,129.701 328.5,133.5C 328.833,133.833 329.167,134.167 329.5,134.5C 340.748,128.293 351.915,121.96 363,115.5C 368.186,118.906 369.686,123.573 367.5,129.5C 365.615,130.609 363.615,131.443 361.5,132C 367.249,132.148 372.915,132.814 378.5,134C 382.048,138.739 382.881,143.905 381,149.5C 379.833,152 378,153.833 375.5,155C 388.25,153.829 400.917,154.496 413.5,157C 418.85,160.371 420.683,165.204 419,171.5C 416.782,172.472 414.449,173.139 412,173.5C 401.879,171.636 391.879,169.303 382,166.5C 375.936,167.141 370.102,168.641 364.5,171C 363.167,172 363.167,173 364.5,174C 368.706,176.621 373.039,176.954 377.5,175C 384.5,174.333 391.5,174.333 398.5,175C 404.942,174.942 408.275,178.109 408.5,184.5C 408.125,186.459 407.459,188.293 406.5,190C 398.81,188.359 390.977,187.192 383,186.5C 370.599,186.488 369.766,188.988 380.5,194C 392.059,194.427 403.392,196.26 414.5,199.5C 415.167,199.167 415.833,198.833 416.5,198.5C 415.527,195.221 414.027,192.221 412,189.5C 410.964,186.32 411.797,183.82 414.5,182C 427.553,179.72 432.053,184.886 428,197.5C 426.989,198.337 425.822,198.67 424.5,198.5C 424.565,200.696 425.232,202.696 426.5,204.5C 436.426,207.442 439.593,213.775 436,223.5C 435.439,224.022 434.772,224.355 434,224.5C 432.3,223.073 430.467,222.24 428.5,222C 429.264,224.069 429.764,226.236 430,228.5C 433,230.833 436,233.167 439,235.5C 439.914,240.196 439.414,244.696 437.5,249C 435.023,249.24 432.856,248.406 431,246.5C 430.562,249.376 429.562,252.043 428,254.5C 426.556,256.155 424.722,256.822 422.5,256.5C 423.511,250.604 423.511,244.77 422.5,239C 411.012,232.394 398.846,227.561 386,224.5C 385.167,224.833 384.333,225.167 383.5,225.5C 384.648,227.149 385.981,228.649 387.5,230C 392.537,233.513 397.537,237.013 402.5,240.5C 399.792,242.436 396.792,242.936 393.5,242C 385.76,238.717 378.593,234.55 372,229.5C 370.786,224.657 371.953,220.49 375.5,217C 373.083,215.374 370.583,213.874 368,212.5C 366.886,208.05 367.72,204.05 370.5,200.5C 360.571,198.056 358.237,192.389 363.5,183.5C 360.152,182.713 356.818,181.879 353.5,181C 349.76,173.053 351.427,166.386 358.5,161C 353.362,161.2 348.195,161.7 343,162.5C 337.394,162.88 334.228,160.38 333.5,155C 333.775,152.069 334.441,149.235 335.5,146.5C 326.039,148.949 318.373,154.449 312.5,163C 310.837,163.265 309.337,162.765 308,161.5C 307.163,159.649 306.329,157.816 305.5,156C 309.42,149.413 314.753,144.08 321.5,140C 315.808,141.2 309.975,142.033 304,142.5C 295.525,143.692 290.858,140.026 290,131.5C 289.333,127.5 289.333,123.5 290,119.5C 291.812,115.392 294.979,113.392 299.5,113.5C 299.649,114.552 299.483,115.552 299,116.5C 295.893,118.714 294.393,121.714 294.5,125.5C 299.786,126.445 305.119,127.112 310.5,127.5C 314.176,127.572 317.676,126.906 321,125.5C 321.667,124.833 321.667,124.167 321,123.5C 314.333,118.167 308.333,112.167 303,105.5C 299.619,97.6992 301.452,91.5326 308.5,87C 315.162,83.171 322.162,80.671 329.5,79.5 Z M 362.5,137.5 C 365.545,137.508 368.545,137.841 371.5,138.5C 370.836,141.713 368.836,143.879 365.5,145C 357.727,148.452 349.727,149.952 341.5,149.5C 341.466,146.801 342.133,144.301 343.5,142C 349.95,140.415 356.283,138.915 362.5,137.5 Z M 370.5,177.5 C 375.519,177.752 380.519,178.252 385.5,179C 384.5,180 383.5,181 382.5,182C 376.833,182.667 371.167,182.667 365.5,182C 367.063,180.264 368.73,178.764 370.5,177.5 Z M 414.5,188.5 C 418.615,189.255 420.781,191.589 421,195.5C 417.926,193.929 415.76,191.596 414.5,188.5 Z M 378.5,195.5 C 383.894,196.692 389.227,198.192 394.5,200C 392.833,200.833 391.167,201.667 389.5,202.5C 384.555,201.436 379.555,200.603 374.5,200C 374.167,199.667 373.833,199.333 373.5,199C 374.955,197.374 376.622,196.208 378.5,195.5 Z M 379.5,207.5 C 393.71,206.422 407.21,209.422 420,216.5C 420.837,218.821 421.17,221.155 421,223.5C 410.483,217.995 399.317,214.495 387.5,213C 384.403,211.727 381.736,209.893 379.5,207.5 Z M 420.5,211.5 C 422.229,212.117 423.729,213.117 425,214.5C 428.201,219.509 428.535,224.509 426,229.5C 424.989,230.337 423.822,230.67 422.5,230.5C 422.261,228.533 422.594,226.699 423.5,225C 422.782,220.39 421.782,215.89 420.5,211.5 Z M 384.5,213.5 C 389.296,215.398 393.962,217.565 398.5,220C 397.57,220.991 396.404,221.491 395,221.5C 389.229,220.465 383.729,218.632 378.5,216C 380.611,215.155 382.611,214.322 384.5,213.5 Z"/></g>
<g><path style="opacity:0.97" fill="#0dc7e0" d="M 129.5,160.5 C 129.328,161.492 129.662,162.158 130.5,162.5C 130.328,163.492 130.662,164.158 131.5,164.5C 136.053,174.554 143.219,182.221 153,187.5C 155.88,186.185 156.88,187.185 156,190.5C 149.886,195.103 143.386,195.603 136.5,192C 127.753,183.665 120.587,174.165 115,163.5C 115.742,178.578 121.575,191.245 132.5,201.5C 129.613,208.518 124.946,210.018 118.5,206C 110.681,200.661 103.514,194.495 97,187.5C 105.957,205.64 119.124,220.307 136.5,231.5C 137.583,232.365 137.749,233.365 137,234.5C 134.838,238.368 131.672,239.868 127.5,239C 114.5,230.667 101.5,222.333 88.5,214C 86.8659,213.506 85.1992,213.34 83.5,213.5C 85.579,224.483 90.9124,233.649 99.5,241C 102.438,242.951 105.438,243.451 108.5,242.5C 105.973,254.131 99.6396,256.631 89.5,250C 76.1194,238.547 72.6194,224.714 79,208.5C 83.3438,203.117 88.8438,200.783 95.5,201.5C 89.5953,193.356 85.5953,184.356 83.5,174.5C 86.1955,166.986 91.5289,163.153 99.5,163C 103.207,169.582 107.041,176.082 111,182.5C 109.578,175.876 107.911,169.209 106,162.5C 100.307,147.179 105.473,139.512 121.5,139.5C 122.611,147.178 125.278,154.178 129.5,160.5 Z"/></g>
<g><path style="opacity:0.985" fill="#00b5cd" d="M 228.5,166.5 C 244.503,166.333 260.503,166.5 276.5,167C 278.949,167.725 281.283,168.725 283.5,170C 286.88,175.047 291.214,179.047 296.5,182C 306.152,183.03 315.818,184.03 325.5,185C 331.088,187.586 334.921,191.753 337,197.5C 337.667,229.833 337.667,262.167 337,294.5C 335.311,299.525 332.144,303.359 327.5,306C 278.559,307.652 229.559,307.986 180.5,307C 173.483,304.648 169.316,299.815 168,292.5C 167.333,261.167 167.333,229.833 168,198.5C 170.092,190.907 174.925,186.24 182.5,184.5C 181.665,177.672 184.665,175.006 191.5,176.5C 197.933,174.772 200.6,177.106 199.5,183.5C 204.287,184.03 208.62,182.863 212.5,180C 217.168,174.481 222.502,169.981 228.5,166.5 Z M 309.5,197.5 C 314.989,197.504 316.822,200.171 315,205.5C 310.43,208.633 307.597,207.466 306.5,202C 306.557,199.791 307.557,198.291 309.5,197.5 Z M 244.5,203.5 C 271.108,201.3 287.941,212.967 295,238.5C 297.192,257.625 290.359,272.459 274.5,283C 252.771,293.359 233.938,289.526 218,271.5C 204.651,248.758 207.818,228.592 227.5,211C 232.872,207.607 238.538,205.107 244.5,203.5 Z"/></g>
<g><path style="opacity:0.981" fill="#00b5cd" d="M 247.5,214.5 C 274.152,214.973 285.985,228.307 283,254.5C 276.901,270.97 265.068,278.47 247.5,277C 227.888,271.625 219.388,258.791 222,238.5C 225.747,225.388 234.247,217.388 247.5,214.5 Z"/></g>
<g><path style="opacity:0.94" fill="#1376c9" d="M 91.5,272.5 C 92.8221,272.33 93.9887,272.663 95,273.5C 95.1011,276.873 96.6011,279.373 99.5,281C 116.731,283.987 134.064,286.154 151.5,287.5C 151.215,285.712 151.548,284.045 152.5,282.5C 153.425,281.359 154.259,281.359 155,282.5C 157.155,288.786 159.155,295.12 161,301.5C 163.494,311.02 159.994,316.854 150.5,319C 141.412,320.305 133.912,317.472 128,310.5C 125.673,305.15 123.173,299.984 120.5,295C 113.891,294.643 107.391,293.81 101,292.5C 99.9239,295.36 99.0905,298.36 98.5,301.5C 98.1667,301.333 97.8333,301.167 97.5,301C 94.9286,291.644 92.9286,282.144 91.5,272.5 Z M 127.5,295.5 C 136.173,295.334 144.84,295.5 153.5,296C 157.535,302.951 155.868,307.618 148.5,310C 136.742,312.077 129.742,307.244 127.5,295.5 Z"/></g>
<g><path style="opacity:0.933" fill="#1476c9" d="M 381.5,269.5 C 392.769,281.314 403.603,293.647 414,306.5C 420.663,315.85 424.497,326.017 425.5,337C 424.478,339.545 423.312,342.045 422,344.5C 417.024,347.572 414.191,346.072 413.5,340C 414.597,335.638 416.597,331.805 419.5,328.5C 418.333,321.322 415,315.488 409.5,311C 399.467,308.6 389.467,306.1 379.5,303.5C 378.686,305.952 379.186,308.285 381,310.5C 388.07,316.447 394.57,322.947 400.5,330C 401.6,330.432 402.267,329.932 402.5,328.5C 401.481,325.14 400.481,321.807 399.5,318.5C 400.822,318.33 401.989,318.663 403,319.5C 406.283,325.268 406.949,331.268 405,337.5C 402.067,341.316 398.901,341.483 395.5,338C 389.476,330.978 383.143,324.311 376.5,318C 373.26,317.558 371.427,319.058 371,322.5C 370.799,325.515 371.132,328.515 372,331.5C 377.333,338.833 382.667,346.167 388,353.5C 388.328,357.869 387.161,361.869 384.5,365.5C 375.506,351.522 366.006,337.855 356,324.5C 353.982,322.65 352.149,320.65 350.5,318.5C 349.5,319.167 348.5,319.833 347.5,320.5C 346.475,315.987 346.975,311.653 349,307.5C 354.973,313.473 360.973,319.473 367,325.5C 366.004,321.117 366.337,316.784 368,312.5C 369.845,309.817 372.345,308.15 375.5,307.5C 372.285,302.033 373.285,297.7 378.5,294.5C 386.703,296.975 395.036,298.475 403.5,299C 397.134,292.969 391.134,286.636 385.5,280C 383.865,279.46 382.532,279.96 381.5,281.5C 380.692,281.192 380.025,280.692 379.5,280C 380.203,276.504 380.87,273.004 381.5,269.5 Z"/></g>
<g><path style="opacity:0.942" fill="#1376c8" d="M 351.5,338.5 C 362.061,338.208 368.895,343.208 372,353.5C 376.403,366.757 373.57,378.257 363.5,388C 361.423,388.192 359.423,388.692 357.5,389.5C 358.989,395.121 360.322,400.788 361.5,406.5C 360.968,410.544 358.968,413.711 355.5,416C 354.256,416.456 353.423,415.956 353,414.5C 351.322,407.456 349.489,400.456 347.5,393.5C 346.187,399.312 342.687,402.978 337,404.5C 335.289,404.561 333.956,403.894 333,402.5C 328.095,411.535 320.595,415.035 310.5,413C 307.533,410.9 305.7,408.066 305,404.5C 304.437,396.74 304.77,389.073 306,381.5C 303.77,384.618 301.27,384.951 298.5,382.5C 297.186,383.313 296.019,384.313 295,385.5C 292.909,396.465 290.909,407.465 289,418.5C 286,420.167 283,421.833 280,423.5C 281.92,410.835 283.753,398.335 285.5,386C 285.333,385.5 285.167,385 285,384.5C 282.993,387.336 280.826,390.003 278.5,392.5C 276.519,391.895 276.185,390.895 277.5,389.5C 276.675,388.614 275.675,388.281 274.5,388.5C 275.701,400.133 270.701,407.633 259.5,411C 256.571,411.777 253.737,411.61 251,410.5C 248.019,411.536 245.519,413.202 243.5,415.5C 244.025,416.192 244.692,416.692 245.5,417C 253.298,417.287 260.964,418.287 268.5,420C 271.94,426.383 270.607,431.716 264.5,436C 251.756,443.906 238.422,445.239 224.5,440C 218.401,436.324 218.068,432.324 223.5,428C 227.271,425.781 231.271,424.115 235.5,423C 233.213,420.952 233.046,418.785 235,416.5C 238.577,413.627 242.411,411.127 246.5,409C 241.74,404.683 241.24,399.849 245,394.5C 248.496,388.828 253.329,384.661 259.5,382C 265.833,382.333 272.167,382.667 278.5,383C 281.667,381.167 284.833,379.333 288,377.5C 291.07,378.296 292.737,380.296 293,383.5C 295.059,378.945 298.226,375.612 302.5,373.5C 305.464,374.733 306.964,377.066 307,380.5C 309.691,372.644 314.857,367.311 322.5,364.5C 323.554,364.68 324.554,365.013 325.5,365.5C 327.167,363.5 328.833,361.5 330.5,359.5C 332.131,361.059 332.964,363.059 333,365.5C 333.173,361.281 334.173,357.281 336,353.5C 338.667,350.833 341.333,350.833 344,353.5C 344.927,347.646 347.427,342.646 351.5,338.5 Z M 351.5,348.5 C 356.542,348.015 360.376,350.015 363,354.5C 368.451,362.391 369.451,370.725 366,379.5C 363.373,383.153 360.04,384.153 356,382.5C 351.674,373.537 349.008,364.203 348,354.5C 348.564,352.113 349.73,350.113 351.5,348.5 Z M 337.5,359.5 C 338.79,360.058 339.623,361.058 340,362.5C 341.833,369.667 343.667,376.833 345.5,384C 345.102,388.514 343.769,392.68 341.5,396.5C 338.978,388.056 336.644,379.556 334.5,371C 336.186,367.349 337.186,363.516 337.5,359.5 Z M 319.5,369.5 C 323.182,368.725 325.682,370.059 327,373.5C 328.691,380.787 330.191,388.121 331.5,395.5C 330.438,401.396 326.938,404.729 321,405.5C 318.849,405.357 317.182,404.357 316,402.5C 311.863,393.514 311.53,384.514 315,375.5C 316.277,373.253 317.777,371.253 319.5,369.5 Z M 260.5,385.5 C 262.39,385.297 263.89,385.963 265,387.5C 268.074,394.24 266.907,400.406 261.5,406C 256.019,409.028 253.019,407.528 252.5,401.5C 252.556,394.722 255.222,389.388 260.5,385.5 Z M 238.5,424.5 C 247.023,425.166 255.69,425.999 264.5,427C 265.167,427.667 265.833,428.333 266.5,429C 259.212,435.863 250.546,438.529 240.5,437C 228.11,434.426 227.443,430.259 238.5,424.5 Z"/></g>
<g><path style="opacity:0.93" fill="#1375c8" d="M 162.5,313.5 C 166.948,314.56 170.614,316.893 173.5,320.5C 165.737,323.943 157.737,326.776 149.5,329C 156.686,330.194 161.353,334.194 163.5,341C 161.5,344.333 158.833,347 155.5,349C 147.1,352.016 138.766,355.182 130.5,358.5C 133.952,360.39 137.618,360.89 141.5,360C 152.797,351.957 165.13,349.957 178.5,354C 188.587,359.256 190.753,366.756 185,376.5C 172.713,388.633 159.213,390.467 144.5,382C 138.696,377.586 136.696,371.919 138.5,365C 134.146,363.94 129.813,362.607 125.5,361C 120.34,357.236 120.34,353.569 125.5,350C 134.604,347.248 143.604,344.248 152.5,341C 154.968,339.412 155.134,337.578 153,335.5C 149.961,332.897 146.461,331.231 142.5,330.5C 132.688,333.414 122.688,334.914 112.5,335C 110.126,332.961 108.126,330.628 106.5,328C 122.178,325.616 137.844,322.95 153.5,320C 156.959,319.137 160.293,317.97 163.5,316.5C 162.873,315.583 162.539,314.583 162.5,313.5 Z M 171.5,356.5 C 181.344,357.805 183.51,362.471 178,370.5C 170.794,379.533 161.627,383.033 150.5,381C 144.16,376.916 143.827,372.25 149.5,367C 156.025,361.569 163.358,358.069 171.5,356.5 Z"/></g>
<g><path style="opacity:0.962" fill="#1376c8" d="M 210.5,362.5 C 211.675,362.281 212.675,362.614 213.5,363.5C 211.733,366.77 209.4,369.603 206.5,372C 208.519,372.45 210.352,373.283 212,374.5C 212.388,376.076 211.888,377.409 210.5,378.5C 208.271,377.037 205.937,376.203 203.5,376C 195.697,382.802 188.197,389.969 181,397.5C 180.251,398.635 180.417,399.635 181.5,400.5C 193.484,402.151 193.484,403.817 181.5,405.5C 178.344,405.257 175.344,404.424 172.5,403C 169.165,400.321 168.665,397.155 171,393.5C 179.463,386.706 187.63,379.539 195.5,372C 193.993,371.163 193.493,369.996 194,368.5C 199.958,367.571 205.458,365.571 210.5,362.5 Z"/></g>
<g><path style="opacity:0.919" fill="#1376c8" d="M 217.5,378.5 C 236.968,376.118 243.801,384.118 238,402.5C 229.589,414.963 218.089,419.797 203.5,417C 192.776,412.279 190.276,404.779 196,394.5C 201.754,387.063 208.921,381.729 217.5,378.5 Z M 223.5,381.5 C 228.88,381.547 231.547,384.213 231.5,389.5C 230.26,401.142 224.26,409.308 213.5,414C 205.559,415.475 202.059,412.308 203,404.5C 207.105,394.212 213.938,386.546 223.5,381.5 Z"/></g>
</svg>
